:SAMPLES-PER-SECOND 30
:FRAME-RANGE 1-1390
:FULLY-SPECIFIED
:DEGREES
782
root  26.4099 38.1099 14.1141 122.483 -86.8942 -131.857
RightUpLeg  -86.5625 -14.5938 59.1808
RightLeg  126.664 7.00776 -8.06744
RightFoot  -35.9775 -0.105541 0.641812
RightToes  6.35937e-011 1.2921e-014 -6.02303e-014
Spine  12.8074 -2.41266 1.20526
Spine1  -2.00355 -0.0563108 -2.51029
HEad  14.6427 -4.58872 -0.935541
LeftShoulder1  3.5094 -12.5011 -15.6516
LeftArm  43.0488 -22.0299 -70.2751
LeftForeArm  26.0861 -3.31524 -18.1851
LeftHand  -0.00206219 6.81062 2.59167
RightShoulder  3.05278 6.96062 23.6766
RightArm  -1.55848 32.4682 92.7861
RightForeArm  121.004 -3.53359 6.73907
RightHand  1.71619 -18.633 -15.2326
LeftUpLeg  -5.90269 -11.1415 -8.11413
LeftLeg  40.4784 2.26345 2.47449
LeftFoot  -13.7167 0.133113 2.44643
LeftToes  4.52251e-011 4.07896e-011 -5.42348e-012
783
root  25.4958 39.112 14.3647 123.079 -87.2692 -132.642
RightUpLeg  -88.7251 -14.1896 60.2709
RightLeg  125.577 6.56557 -7.83799
RightFoot  -35.6787 0.0334101 1.28466
RightToes  6.35937e-011 1.2921e-014 -6.02303e-014
Spine  12.8254 -2.48062 1.58742
Spine1  -2.44343 0.0773151 -2.7412
HEad  16.3878 -4.68391 -1.56636
LeftShoulder1  3.56587 -12.6876 -15.7532
LeftArm  42.2611 -23.6735 -70.4478
LeftForeArm  28.3449 -2.97203 -18.1362
LeftHand  -0.00885432 6.90448 2.00594
RightShoulder  3.00818 7.15918 22.6273
RightArm  -1.65037 33.6447 93.0387
RightForeArm  117.317 -3.62404 6.26111
RightHand  1.47456 -17.6205 -14.2724
LeftUpLeg  -5.62283 -8.34903 -7.20587
LeftLeg  40.2666 -2.27355 -1.66391
LeftFoot  -4.49216 0.111355 -1.4094
LeftToes  4.52251e-011 4.07896e-011 -5.42348e-012
784
root  24.7012 39.7274 14.577 120.948 -86.586 -130.544
RightUpLeg  -89.5746 -13.0597 61.8288
RightLeg  123.377 5.02809 -6.39336
RightFoot  -35.4324 0.236119 2.24013
RightToes  6.35937e-011 1.2921e-014 -6.02303e-014
Spine  13.4393 -2.51042 2.6962
Spine1  -2.74474 0.240073 -2.71698
HEad  17.5234 -4.22971 -2.49262
LeftShoulder1  3.52691 -12.5353 -15.7198
LeftArm  42.0147 -24.6463 -70.0583
LeftForeArm  28.8999 -2.7118 -18.142
LeftHand  -0.00869365 6.90966 2.01703
RightShoulder  2.98589 7.31782 21.9475
RightArm  -1.20398 34.514 93.5323
RightForeArm  114.651 -3.73464 6.18398
RightHand  1.33232 -16.9868 -13.6673
LeftUpLeg  -6.96461 -7.64807 -5.01866
LeftLeg  41.7398 -5.14503 -4.50138
LeftFoot  -2.75688 0.476002 -6.11905
LeftToes  4.52251e-011 4.07896e-011 -5.42348e-012
785
root  23.9798 40.0673 14.7863 123.98 -86.2667 -133.233
RightUpLeg  -89.6664 -12.2688 62.1816
RightLeg  120.679 2.8019 -3.67295
RightFoot  -35.6738 0.416935 3.06378
RightToes  6.35937e-011 1.2921e-014 -6.02303e-014
Spine  14.5913 -2.55998 2.69948
Spine1  -3.65446 0.258954 -2.49793
HEad  18.3639 -3.86935 -2.48926
LeftShoulder1  3.46477 -12.2718 -15.697
LeftArm  42.8869 -25.2942 -69.2139
LeftForeArm  28.5524 -2.7846 -18.1486
LeftHand  -0.00575707 6.84343 2.1979
RightShoulder  2.94436 7.12686 22.07
RightArm  -0.469373 34.7889 93.9624
RightForeArm  113.568 -3.83579 6.49677
RightHand  1.38086 -17.1011 -13.9966
LeftUpLeg  -8.33446 -9.86579 -3.76358
LeftLeg  39.1492 -4.13027 -3.20829
LeftFoot  -6.49306 0.249024 -4.96118
LeftToes  4.52251e-011 4.07896e-011 -5.42348e-012
786
root  23.3366 40.0852 14.9401 138.09 -86.7742 -146.563
RightUpLeg  -89.4477 -11.6086 61.323
RightLeg  118.096 1.20407 -1.34805
RightFoot  -35.3208 0.526487 3.61424
RightToes  6.35937e-011 1.2921e-014 -6.02303e-014
Spine  15.9653 -2.39397 1.31532
Spine1  -4.4418 0.309362 -2.46794
HEad  18.0174 -4.2308 -1.77149
LeftShoulder1  3.39374 -12.1455 -15.394
LeftArm  41.1287 -26.2526 -68.5373
LeftForeArm  30.614 -2.16982 -18.1194
LeftHand  -0.00792182 6.94216 2.21403
RightShoulder  2.9628 7.14554 22.2046
RightArm  0.147694 34.8914 94.3126
RightForeArm  112.515 -3.93603 6.81267
RightHand  1.51241 -17.257 -15.0403
LeftUpLeg  -9.97399 -13.7944 -3.36494
LeftLeg  33.1581 -1.64745 -0.788093
LeftFoot  -12.3291 0.0478173 -3.02666
LeftToes  4.52251e-011 4.07896e-011 -5.42348e-012
787
root  22.7002 39.6719 15.1929 158.48 -87.3601 -166.16
RightUpLeg  -89.1063 -11.5801 60.675
RightLeg  116.411 0.813393 -0.744457
RightFoot  -35.7618 0.689512 4.31436
RightToes  6.35937e-011 1.2921e-014 -6.02303e-014
Spine  17.3059 -2.29519 0.092402
Spine1  -4.97345 0.370869 -2.46435
HEad  17.6219 -4.98794 -1.58651
LeftShoulder1  3.37731 -12.2158 -15.1687
LeftArm  40.2148 -27.3209 -68.3703
LeftForeArm  32.1008 -1.88004 -18.0774
LeftHand  -0.0134782 7.13159 2.10317
RightShoulder  2.98537 7.2447 22.1494
RightArm  -0.0480389 34.9844 94.6613
RightForeArm  112.525 -3.88891 6.52456
RightHand  1.58805 -17.405 -15.5542
LeftUpLeg  -12.4664 -18.473 -2.99424
LeftLeg  28.0296 2.15382 1.60278
LeftFoot  -16.3487 -0.00728292 -2.40771
LeftToes  4.52251e-011 4.07896e-011 -5.42348e-012
